<svg width="48" height="48" viewBox="0 0 48 48" fill="none" xmlns="http://www.w3.org/2000/svg">
<path d="M39.7493 10.0831H35.9993V11.4363L39.7493 15.0125V10.0831Z" fill="#FE980F"/>
<path d="M39.7493 21.6045L32.1941 14.4123L32.1903 14.4249L26.6658 9.16588V9.15041L23.9996 6.61321V4.86182V6.61321L23.2561 7.32073V7.32266L17.7316 12.5807V12.5797L14.9547 15.2223L8.24988 21.6045V43.3326H39.7493V21.6045Z" fill="#FE980F"/>
<path d="M18.0465 18.6844H17.9809C16.1716 18.7038 14.5779 19.622 13.2373 21.3908C11.9904 23.0436 11.5779 24.8511 12.0279 26.7455C13.4248 32.6608 23.1089 37.3196 23.5214 37.5226C23.6714 37.5999 23.8402 37.6289 23.9995 37.6289C24.1683 37.6289 24.3277 37.5902 24.4777 37.5226C24.8902 37.3293 34.5743 32.6608 35.9712 26.7455C36.4212 24.8511 36.0087 23.0533 34.7618 21.3908C33.4212 19.622 31.8275 18.7038 30.0182 18.6844H29.9526C27.4214 18.6844 25.1808 20.4919 23.9995 21.6711C22.8183 20.5016 20.5777 18.6844 18.0465 18.6844Z" fill="white"/>
<path d="M47.2491 43.3605H41.2492V23.0629L44.4929 26.1462C44.6335 26.2815 44.821 26.3492 44.9991 26.3492C45.1866 26.3492 45.3835 26.2719 45.5335 26.1269L47.7834 23.8072C47.9241 23.6622 48.0084 23.4592 47.9991 23.2466C47.9991 23.0339 47.9053 22.8406 47.7553 22.6956L41.2492 16.471V9.33787C41.2492 8.91259 40.9117 8.56463 40.4992 8.56463H35.2493C34.8368 8.56463 34.4993 8.91259 34.4993 9.33787V10.0338L27.5057 3.36457C27.4823 3.34041 27.456 3.31818 27.4298 3.29788V3.30078L23.9995 0.0376956V0L18.0043 5.7046L18.01 5.72586L0.243745 22.686C0.0937481 22.831 0 23.0339 0 23.2369C0 23.4495 0.0749985 23.6525 0.215621 23.7975L2.46558 26.1172C2.74682 26.4072 3.20619 26.4169 3.50618 26.1366L6.74987 23.0629V43.3605H0.749985C0.337493 43.3605 0 43.7085 0 44.1338V47.2268C0 47.652 0.337493 48 0.749985 48H47.2491C47.6616 48 47.9991 47.652 47.9991 47.2268V44.1338C47.9991 43.7085 47.6616 43.3605 47.2491 43.3605ZM35.9993 10.1111H39.7492V15.0405L35.9993 11.4643V10.1111ZM39.7492 43.3605H8.24984V21.6324L14.9547 15.2512L17.7315 12.6087V12.6097L23.257 7.3516V7.34967L24.0005 6.64215L26.6657 9.17936V9.19579L32.1912 14.4538L32.195 14.4422L39.7502 21.6334V43.3605H39.7492Z" fill="#FE980F"/>
</svg>
