<svg width="22" height="21" viewBox="0 0 22 21" fill="none" xmlns="http://www.w3.org/2000/svg">
<path d="M11.4813 0.0267635C11.3115 0.0267635 11.1378 0.0938942 11.0075 0.224207C10.7468 0.484832 10.7468 0.911309 11.0075 1.17193L19.9279 10.0924L11.1378 18.8826C10.8771 19.1432 10.8771 19.5697 11.1378 19.8303C11.3984 20.0909 11.8249 20.0909 12.0855 19.8303L21.3535 10.5663C21.6141 10.3057 21.6141 9.87918 21.3535 9.61856L11.9591 0.224207C11.8249 0.0899454 11.6551 0.0267635 11.4813 0.0267635Z" fill="white"/>
<path d="M6.07533 0.0277248C5.90553 0.0277248 5.73176 0.0948555 5.60145 0.225168C5.34082 0.485793 5.34082 0.912271 5.60145 1.1729L14.5219 10.0934L5.73176 18.8836C5.47113 19.1442 5.47113 19.5707 5.73176 19.8313C5.99238 20.0919 6.41886 20.0919 6.67949 19.8313L15.9475 10.5672C16.2081 10.3066 16.2081 9.88014 15.9475 9.61952L6.55312 0.225168C6.41886 0.0909067 6.24908 0.0277248 6.07533 0.0277248Z" fill="white"/>
<path d="M0.669325 0.0277248C0.499524 0.0277248 0.325754 0.0948555 0.195442 0.225168C-0.0651835 0.485793 -0.0651835 0.912271 0.195442 1.1729L9.11593 10.0934L0.325753 18.8836C0.0651278 19.1442 0.0651278 19.5707 0.325753 19.8313C0.586378 20.0919 1.01286 20.0919 1.27348 19.8313L10.5415 10.5672C10.8021 10.3066 10.8021 9.88014 10.5415 9.61952L1.14712 0.225168C1.01286 0.0909067 0.843075 0.0277248 0.669325 0.0277248Z" fill="white"/>
</svg>
