<svg width="212" height="66" viewBox="0 0 212 66" fill="none" xmlns="http://www.w3.org/2000/svg">
<path d="M24.062 24.9126H23.9746C21.5621 24.9384 19.4371 26.1627 17.6497 28.5211C15.9872 30.7248 15.4372 33.1347 16.0372 35.6607C17.8997 43.5477 30.8119 49.7595 31.3619 50.0301C31.5619 50.1332 31.7869 50.1719 31.9994 50.1719C32.2244 50.1719 32.4369 50.1203 32.6369 50.0301C33.1869 49.7723 46.0991 43.5477 47.9616 35.6607C48.5616 33.1347 48.0116 30.7377 46.3491 28.5211C44.5616 26.1627 42.4367 24.9384 40.0242 24.9126H39.9367C36.5618 24.9126 33.5744 27.3225 31.9994 28.8948C30.4244 27.3354 27.437 24.9126 24.062 24.9126Z" fill="#FE980F"/>
<path d="M62.9988 57.8141H54.9989V30.7506L59.3238 34.8616C59.5113 35.0421 59.7613 35.1323 59.9988 35.1323C60.2488 35.1323 60.5113 35.0292 60.7113 34.8359L63.7113 31.7429C63.8987 31.5496 64.0112 31.279 63.9987 30.9954C63.9987 30.7119 63.8737 30.4542 63.6738 30.2609L54.9989 21.9614V12.4505C54.9989 11.8835 54.5489 11.4195 53.9989 11.4195H46.9991C46.4491 11.4195 45.9991 11.8835 45.9991 12.4505V13.3784L36.6743 4.4861C36.643 4.45388 36.608 4.42424 36.573 4.39717V4.40104L31.9994 0.0502608V0L24.0058 7.60613L24.0133 7.63448L0.324994 30.248C0.124998 30.4413 0 30.7119 0 30.9825C0 31.2661 0.099998 31.5367 0.287494 31.73L3.28744 34.823C3.66243 35.2096 4.27492 35.2225 4.67491 34.8488L8.99982 30.7506V57.8141H0.99998C0.449991 57.8141 0 58.278 0 58.8451V62.969C0 63.5361 0.449991 64 0.99998 64H62.9988C63.5488 64 63.9987 63.5361 63.9987 62.969V58.8451C63.9987 58.278 63.5488 57.8141 62.9988 57.8141ZM47.9991 13.4815H52.999V20.054L47.9991 15.2857V13.4815ZM52.999 57.8141H10.9998V28.8432L19.9396 20.335L23.642 16.8116V16.8129L31.0094 9.80214V9.79956L32.0006 8.85621L35.5543 12.2391V12.2611L42.9217 19.2718L42.9267 19.2563L53.0002 28.8445V57.8141H52.999Z" fill="white"/>
<path d="M97.32 21.96C97.32 23.8133 96.6867 25.2733 95.42 26.34C94.1667 27.3933 92.36 27.98 90 28.1V29.62H87.02V28.08C84.6467 27.9467 82.8267 27.3533 81.56 26.3C80.3067 25.2333 79.68 23.7867 79.68 21.96C79.68 20.12 80.3067 18.68 81.56 17.64C82.8267 16.5867 84.6467 15.9867 87.02 15.84V14.4H90V15.82C92.36 15.9533 94.1667 16.5533 95.42 17.62C96.6867 18.6867 97.32 20.1333 97.32 21.96ZM90 25.56C91.4133 25.4267 92.4667 25.0667 93.16 24.48C93.8533 23.88 94.2 23.0333 94.2 21.94C94.2 19.8067 92.8 18.62 90 18.38V25.56ZM82.82 21.96C82.82 24.0667 84.22 25.2667 87.02 25.56V18.38C85.5933 18.5133 84.5333 18.8733 83.84 19.46C83.16 20.0333 82.82 20.8667 82.82 21.96ZM99.5039 18.24H102.604V24.64L107.844 18.24H110.704V29H107.604V22.6L102.384 29H99.5039V18.24ZM124.023 18.24V29H120.903V20.8H117.503L117.403 22.7C117.35 24.1133 117.216 25.2867 117.003 26.22C116.79 27.1533 116.443 27.8867 115.963 28.42C115.483 28.9533 114.816 29.22 113.963 29.22C113.51 29.22 112.97 29.14 112.343 28.98L112.503 26.42C112.716 26.4467 112.87 26.46 112.963 26.46C113.43 26.46 113.776 26.2933 114.003 25.96C114.243 25.6133 114.403 25.18 114.483 24.66C114.563 24.1267 114.623 23.4267 114.663 22.56L114.823 18.24H124.023ZM141.703 26.36V31.9H138.703V29H128.823V31.9H125.823L125.843 26.36H126.403C127.243 26.3333 127.837 25.72 128.183 24.52C128.53 23.32 128.743 21.6067 128.823 19.38L128.983 15H139.743V26.36H141.703ZM131.683 19.68C131.617 21.3467 131.477 22.7467 131.263 23.88C131.05 25 130.723 25.8267 130.283 26.36H136.543V17.64H131.743L131.683 19.68ZM148.548 29.16C147.414 29.16 146.394 28.9267 145.488 28.46C144.594 27.98 143.894 27.32 143.388 26.48C142.881 25.64 142.628 24.6867 142.628 23.62C142.628 22.5533 142.881 21.6 143.388 20.76C143.894 19.92 144.594 19.2667 145.488 18.8C146.394 18.32 147.414 18.08 148.548 18.08C149.681 18.08 150.694 18.32 151.588 18.8C152.481 19.2667 153.181 19.92 153.688 20.76C154.194 21.6 154.448 22.5533 154.448 23.62C154.448 24.6867 154.194 25.64 153.688 26.48C153.181 27.32 152.481 27.98 151.588 28.46C150.694 28.9267 149.681 29.16 148.548 29.16ZM148.548 26.6C149.348 26.6 150.001 26.3333 150.508 25.8C151.028 25.2533 151.288 24.5267 151.288 23.62C151.288 22.7133 151.028 21.9933 150.508 21.46C150.001 20.9133 149.348 20.64 148.548 20.64C147.748 20.64 147.088 20.9133 146.568 21.46C146.048 21.9933 145.788 22.7133 145.788 23.62C145.788 24.5267 146.048 25.2533 146.568 25.8C147.088 26.3333 147.748 26.6 148.548 26.6ZM167.094 29V22.56L163.874 27.96H162.554L159.414 22.54V29H156.594V18.24H159.854L163.294 24.46L166.954 18.24H169.874L169.914 29H167.094Z" fill="white"/>
<path d="M84.328 43.62C84.856 43.764 85.268 44.016 85.564 44.376C85.86 44.728 86.008 45.152 86.008 45.648C86.008 46.144 85.848 46.58 85.528 46.956C85.216 47.324 84.796 47.608 84.268 47.808C83.748 48 83.18 48.096 82.564 48.096C82.004 48.096 81.448 48.012 80.896 47.844C80.344 47.676 79.84 47.424 79.384 47.088L79.804 46.2C80.172 46.488 80.584 46.704 81.04 46.848C81.496 46.992 81.956 47.064 82.42 47.064C83.092 47.064 83.656 46.924 84.112 46.644C84.568 46.356 84.796 45.964 84.796 45.468C84.796 45.044 84.624 44.72 84.28 44.496C83.936 44.264 83.452 44.148 82.828 44.148H80.956V43.176H82.744C83.28 43.176 83.696 43.068 83.992 42.852C84.296 42.628 84.448 42.32 84.448 41.928C84.448 41.488 84.252 41.14 83.86 40.884C83.468 40.628 82.972 40.5 82.372 40.5C81.98 40.5 81.58 40.556 81.172 40.668C80.772 40.78 80.392 40.948 80.032 41.172L79.648 40.188C80.072 39.948 80.52 39.768 80.992 39.648C81.464 39.528 81.936 39.468 82.408 39.468C83 39.468 83.544 39.56 84.04 39.744C84.536 39.928 84.928 40.196 85.216 40.548C85.512 40.9 85.66 41.312 85.66 41.784C85.66 42.208 85.54 42.58 85.3 42.9C85.068 43.22 84.744 43.46 84.328 43.62ZM90.0832 41.58C90.9632 41.58 91.6352 41.796 92.0992 42.228C92.5712 42.66 92.8072 43.304 92.8072 44.16V48H91.7152V47.16C91.5232 47.456 91.2472 47.684 90.8872 47.844C90.5352 47.996 90.1152 48.072 89.6272 48.072C88.9152 48.072 88.3432 47.9 87.9112 47.556C87.4872 47.212 87.2752 46.76 87.2752 46.2C87.2752 45.64 87.4792 45.192 87.8872 44.856C88.2952 44.512 88.9432 44.34 89.8312 44.34H91.6552V44.112C91.6552 43.616 91.5112 43.236 91.2232 42.972C90.9352 42.708 90.5112 42.576 89.9512 42.576C89.5752 42.576 89.2072 42.64 88.8472 42.768C88.4872 42.888 88.1832 43.052 87.9352 43.26L87.4552 42.396C87.7832 42.132 88.1752 41.932 88.6312 41.796C89.0872 41.652 89.5712 41.58 90.0832 41.58ZM89.8192 47.184C90.2592 47.184 90.6392 47.088 90.9592 46.896C91.2792 46.696 91.5112 46.416 91.6552 46.056V45.168H89.8792C88.9032 45.168 88.4152 45.496 88.4152 46.152C88.4152 46.472 88.5392 46.724 88.7872 46.908C89.0352 47.092 89.3792 47.184 89.8192 47.184ZM100.774 41.64V48H99.6216V42.648H96.0336V48H94.8816V41.64H100.774ZM105.727 48.072C105.095 48.072 104.527 47.932 104.023 47.652C103.519 47.372 103.123 46.988 102.835 46.5C102.555 46.004 102.415 45.444 102.415 44.82C102.415 44.196 102.555 43.64 102.835 43.152C103.123 42.656 103.519 42.272 104.023 42C104.527 41.72 105.095 41.58 105.727 41.58C106.359 41.58 106.923 41.72 107.419 42C107.923 42.272 108.315 42.656 108.595 43.152C108.883 43.64 109.027 44.196 109.027 44.82C109.027 45.444 108.883 46.004 108.595 46.5C108.315 46.988 107.923 47.372 107.419 47.652C106.923 47.932 106.359 48.072 105.727 48.072ZM105.727 47.064C106.135 47.064 106.499 46.972 106.819 46.788C107.147 46.596 107.403 46.332 107.587 45.996C107.771 45.652 107.863 45.26 107.863 44.82C107.863 44.38 107.771 43.992 107.587 43.656C107.403 43.312 107.147 43.048 106.819 42.864C106.499 42.68 106.135 42.588 105.727 42.588C105.319 42.588 104.951 42.68 104.623 42.864C104.303 43.048 104.047 43.312 103.855 43.656C103.671 43.992 103.579 44.38 103.579 44.82C103.579 45.26 103.671 45.652 103.855 45.996C104.047 46.332 104.303 46.596 104.623 46.788C104.951 46.972 105.319 47.064 105.727 47.064ZM116.103 41.64V48H114.951V42.648H112.215L112.143 44.064C112.103 44.92 112.027 45.636 111.915 46.212C111.803 46.78 111.619 47.236 111.363 47.58C111.107 47.924 110.751 48.096 110.295 48.096C110.087 48.096 109.851 48.06 109.587 47.988L109.659 47.016C109.763 47.04 109.859 47.052 109.947 47.052C110.267 47.052 110.507 46.912 110.667 46.632C110.827 46.352 110.931 46.02 110.979 45.636C111.027 45.252 111.071 44.704 111.111 43.992L111.219 41.64H116.103ZM118.331 41.64H119.483V44.34H123.107V41.64H124.259V48H123.107V45.336H119.483V48H118.331V41.64ZM126.499 41.64H127.651V46.272L131.551 41.64H132.595V48H131.443V43.368L127.555 48H126.499V41.64ZM140.826 48.072C140.178 48.072 139.598 47.932 139.086 47.652C138.582 47.372 138.186 46.988 137.898 46.5C137.61 46.004 137.466 45.444 137.466 44.82C137.466 44.196 137.61 43.64 137.898 43.152C138.186 42.656 138.582 42.272 139.086 42C139.598 41.72 140.178 41.58 140.826 41.58C141.402 41.58 141.914 41.696 142.362 41.928C142.818 42.16 143.17 42.496 143.418 42.936L142.542 43.5C142.342 43.196 142.094 42.968 141.798 42.816C141.502 42.664 141.174 42.588 140.814 42.588C140.398 42.588 140.022 42.68 139.686 42.864C139.358 43.048 139.098 43.312 138.906 43.656C138.722 43.992 138.63 44.38 138.63 44.82C138.63 45.268 138.722 45.664 138.906 46.008C139.098 46.344 139.358 46.604 139.686 46.788C140.022 46.972 140.398 47.064 140.814 47.064C141.174 47.064 141.502 46.988 141.798 46.836C142.094 46.684 142.342 46.456 142.542 46.152L143.418 46.704C143.17 47.144 142.818 47.484 142.362 47.724C141.914 47.956 141.402 48.072 140.826 48.072ZM149.241 44.7C150.065 44.908 150.477 45.424 150.477 46.248C150.477 46.808 150.265 47.24 149.841 47.544C149.425 47.848 148.801 48 147.969 48H144.909V41.64H147.861C148.613 41.64 149.201 41.784 149.625 42.072C150.049 42.352 150.261 42.752 150.261 43.272C150.261 43.608 150.169 43.9 149.985 44.148C149.809 44.388 149.561 44.572 149.241 44.7ZM146.037 44.376H147.765C148.205 44.376 148.537 44.296 148.761 44.136C148.993 43.976 149.109 43.744 149.109 43.44C149.109 42.832 148.661 42.528 147.765 42.528H146.037V44.376ZM147.885 47.112C148.365 47.112 148.725 47.036 148.965 46.884C149.205 46.732 149.325 46.496 149.325 46.176C149.325 45.848 149.213 45.604 148.989 45.444C148.773 45.284 148.429 45.204 147.957 45.204H146.037V47.112H147.885ZM155.004 48.072C154.372 48.072 153.804 47.932 153.3 47.652C152.796 47.372 152.4 46.988 152.112 46.5C151.832 46.004 151.692 45.444 151.692 44.82C151.692 44.196 151.832 43.64 152.112 43.152C152.4 42.656 152.796 42.272 153.3 42C153.804 41.72 154.372 41.58 155.004 41.58C155.636 41.58 156.2 41.72 156.696 42C157.2 42.272 157.592 42.656 157.872 43.152C158.16 43.64 158.304 44.196 158.304 44.82C158.304 45.444 158.16 46.004 157.872 46.5C157.592 46.988 157.2 47.372 156.696 47.652C156.2 47.932 155.636 48.072 155.004 48.072ZM155.004 47.064C155.412 47.064 155.776 46.972 156.096 46.788C156.424 46.596 156.68 46.332 156.864 45.996C157.048 45.652 157.14 45.26 157.14 44.82C157.14 44.38 157.048 43.992 156.864 43.656C156.68 43.312 156.424 43.048 156.096 42.864C155.776 42.68 155.412 42.588 155.004 42.588C154.596 42.588 154.228 42.68 153.9 42.864C153.58 43.048 153.324 43.312 153.132 43.656C152.948 43.992 152.856 44.38 152.856 44.82C152.856 45.26 152.948 45.652 153.132 45.996C153.324 46.332 153.58 46.596 153.9 46.788C154.228 46.972 154.596 47.064 155.004 47.064ZM159.968 41.64H161.12V46.272L165.02 41.64H166.064V48H164.912V43.368L161.024 48H159.968V41.64ZM162.944 40.812C162.352 40.812 161.892 40.672 161.564 40.392C161.236 40.104 161.068 39.692 161.06 39.156H161.84C161.848 39.452 161.948 39.692 162.14 39.876C162.34 40.052 162.604 40.14 162.932 40.14C163.26 40.14 163.524 40.052 163.724 39.876C163.924 39.692 164.028 39.452 164.036 39.156H164.84C164.832 39.692 164.66 40.104 164.324 40.392C163.988 40.672 163.528 40.812 162.944 40.812ZM177.99 46.992V49.476H176.91V48H171.594V49.476H170.502V46.992H170.838C171.246 46.968 171.526 46.68 171.678 46.128C171.83 45.576 171.934 44.796 171.99 43.788L172.086 41.64H177.018V46.992H177.99ZM173.046 43.872C173.014 44.672 172.946 45.336 172.842 45.864C172.746 46.384 172.566 46.76 172.302 46.992H175.866V42.648H173.106L173.046 43.872ZM182.215 48.072C181.583 48.072 181.015 47.932 180.511 47.652C180.007 47.372 179.611 46.988 179.323 46.5C179.043 46.004 178.903 45.444 178.903 44.82C178.903 44.196 179.043 43.64 179.323 43.152C179.611 42.656 180.007 42.272 180.511 42C181.015 41.72 181.583 41.58 182.215 41.58C182.847 41.58 183.411 41.72 183.907 42C184.411 42.272 184.803 42.656 185.083 43.152C185.371 43.64 185.515 44.196 185.515 44.82C185.515 45.444 185.371 46.004 185.083 46.5C184.803 46.988 184.411 47.372 183.907 47.652C183.411 47.932 182.847 48.072 182.215 48.072ZM182.215 47.064C182.623 47.064 182.987 46.972 183.307 46.788C183.635 46.596 183.891 46.332 184.075 45.996C184.259 45.652 184.351 45.26 184.351 44.82C184.351 44.38 184.259 43.992 184.075 43.656C183.891 43.312 183.635 43.048 183.307 42.864C182.987 42.68 182.623 42.588 182.215 42.588C181.807 42.588 181.439 42.68 181.111 42.864C180.791 43.048 180.535 43.312 180.343 43.656C180.159 43.992 180.067 44.38 180.067 44.82C180.067 45.26 180.159 45.652 180.343 45.996C180.535 46.332 180.791 46.596 181.111 46.788C181.439 46.972 181.807 47.064 182.215 47.064ZM194.511 41.64V48H193.467V43.356L191.091 47.28H190.587L188.235 43.344V48H187.179V41.64H188.367L190.863 45.936L193.431 41.64H194.511ZM85.576 56.64V63H84.424V57.648H81.688L81.616 59.064C81.576 59.92 81.5 60.636 81.388 61.212C81.276 61.78 81.092 62.236 80.836 62.58C80.58 62.924 80.224 63.096 79.768 63.096C79.56 63.096 79.324 63.06 79.06 62.988L79.132 62.016C79.236 62.04 79.332 62.052 79.42 62.052C79.74 62.052 79.98 61.912 80.14 61.632C80.3 61.352 80.404 61.02 80.452 60.636C80.5 60.252 80.544 59.704 80.584 58.992L80.692 56.64H85.576ZM93.4315 56.58C94.0475 56.58 94.5995 56.72 95.0875 57C95.5755 57.272 95.9595 57.656 96.2395 58.152C96.5195 58.64 96.6595 59.196 96.6595 59.82C96.6595 60.444 96.5195 61.004 96.2395 61.5C95.9595 61.988 95.5755 62.372 95.0875 62.652C94.5995 62.932 94.0475 63.072 93.4315 63.072C92.8715 63.072 92.3635 62.956 91.9075 62.724C91.4515 62.492 91.0755 62.168 90.7795 61.752C90.4915 61.328 90.3115 60.848 90.2395 60.312H88.9555V63H87.8035V56.64H88.9555V59.244H90.2515C90.3315 58.716 90.5155 58.252 90.8035 57.852C91.0995 57.444 91.4715 57.132 91.9195 56.916C92.3755 56.692 92.8795 56.58 93.4315 56.58ZM93.4315 62.064C93.8235 62.064 94.1755 61.972 94.4875 61.788C94.8075 61.604 95.0595 61.344 95.2435 61.008C95.4275 60.664 95.5195 60.268 95.5195 59.82C95.5195 59.38 95.4275 58.992 95.2435 58.656C95.0595 58.312 94.8075 58.048 94.4875 57.864C94.1755 57.68 93.8235 57.588 93.4315 57.588C93.0395 57.588 92.6835 57.68 92.3635 57.864C92.0435 58.048 91.7915 58.312 91.6075 58.656C91.4315 58.992 91.3435 59.38 91.3435 59.82C91.3435 60.268 91.4315 60.664 91.6075 61.008C91.7915 61.344 92.0435 61.604 92.3635 61.788C92.6835 61.972 93.0395 62.064 93.4315 62.064ZM101.555 56.856C102.147 56.856 102.675 56.988 103.139 57.252C103.603 57.516 103.963 57.884 104.219 58.356C104.483 58.82 104.615 59.352 104.615 59.952C104.615 60.568 104.475 61.116 104.195 61.596C103.923 62.068 103.535 62.436 103.031 62.7C102.535 62.964 101.967 63.096 101.327 63.096C100.247 63.096 99.4112 62.728 98.8192 61.992C98.2352 61.248 97.9432 60.204 97.9432 58.86C97.9432 57.556 98.2112 56.536 98.7472 55.8C99.2832 55.056 100.103 54.564 101.207 54.324L104.111 53.676L104.279 54.732L101.603 55.308C100.771 55.492 100.151 55.804 99.7432 56.244C99.3352 56.684 99.1032 57.316 99.0472 58.14C99.3192 57.732 99.6712 57.416 100.103 57.192C100.535 56.968 101.019 56.856 101.555 56.856ZM101.351 62.136C101.759 62.136 102.119 62.044 102.431 61.86C102.751 61.676 102.999 61.424 103.175 61.104C103.351 60.776 103.439 60.404 103.439 59.988C103.439 59.356 103.247 58.848 102.863 58.464C102.479 58.08 101.975 57.888 101.351 57.888C100.727 57.888 100.219 58.08 99.8272 58.464C99.4432 58.848 99.2512 59.356 99.2512 59.988C99.2512 60.404 99.3392 60.776 99.5152 61.104C99.6992 61.424 99.9512 61.676 100.271 61.86C100.591 62.044 100.951 62.136 101.351 62.136ZM108.985 63.072C108.353 63.072 107.785 62.932 107.281 62.652C106.777 62.372 106.381 61.988 106.093 61.5C105.813 61.004 105.673 60.444 105.673 59.82C105.673 59.196 105.813 58.64 106.093 58.152C106.381 57.656 106.777 57.272 107.281 57C107.785 56.72 108.353 56.58 108.985 56.58C109.617 56.58 110.181 56.72 110.677 57C111.181 57.272 111.573 57.656 111.853 58.152C112.141 58.64 112.285 59.196 112.285 59.82C112.285 60.444 112.141 61.004 111.853 61.5C111.573 61.988 111.181 62.372 110.677 62.652C110.181 62.932 109.617 63.072 108.985 63.072ZM108.985 62.064C109.393 62.064 109.757 61.972 110.077 61.788C110.405 61.596 110.661 61.332 110.845 60.996C111.029 60.652 111.121 60.26 111.121 59.82C111.121 59.38 111.029 58.992 110.845 58.656C110.661 58.312 110.405 58.048 110.077 57.864C109.757 57.68 109.393 57.588 108.985 57.588C108.577 57.588 108.209 57.68 107.881 57.864C107.561 58.048 107.305 58.312 107.113 58.656C106.929 58.992 106.837 59.38 106.837 59.82C106.837 60.26 106.929 60.652 107.113 60.996C107.305 61.332 107.561 61.596 107.881 61.788C108.209 61.972 108.577 62.064 108.985 62.064ZM118.28 59.7C119.104 59.908 119.516 60.424 119.516 61.248C119.516 61.808 119.304 62.24 118.88 62.544C118.464 62.848 117.84 63 117.008 63H113.948V56.64H116.9C117.652 56.64 118.24 56.784 118.664 57.072C119.088 57.352 119.3 57.752 119.3 58.272C119.3 58.608 119.208 58.9 119.024 59.148C118.848 59.388 118.6 59.572 118.28 59.7ZM115.076 59.376H116.804C117.244 59.376 117.576 59.296 117.8 59.136C118.032 58.976 118.148 58.744 118.148 58.44C118.148 57.832 117.7 57.528 116.804 57.528H115.076V59.376ZM116.924 62.112C117.404 62.112 117.764 62.036 118.004 61.884C118.244 61.732 118.364 61.496 118.364 61.176C118.364 60.848 118.252 60.604 118.028 60.444C117.812 60.284 117.468 60.204 116.996 60.204H115.076V62.112H116.924ZM124.259 58.8C125.067 58.808 125.683 58.992 126.107 59.352C126.531 59.712 126.743 60.22 126.743 60.876C126.743 61.564 126.511 62.096 126.047 62.472C125.591 62.84 124.935 63.02 124.079 63.012L121.319 63V56.64H122.471V58.788L124.259 58.8ZM123.983 62.136C124.503 62.144 124.895 62.04 125.159 61.824C125.431 61.608 125.567 61.288 125.567 60.864C125.567 60.448 125.435 60.144 125.171 59.952C124.915 59.76 124.519 59.66 123.983 59.652L122.471 59.628V62.124L123.983 62.136ZM133.849 56.58C134.465 56.58 135.017 56.72 135.505 57C135.993 57.272 136.377 57.656 136.657 58.152C136.937 58.64 137.077 59.196 137.077 59.82C137.077 60.444 136.937 61.004 136.657 61.5C136.377 61.988 135.993 62.372 135.505 62.652C135.017 62.932 134.465 63.072 133.849 63.072C133.289 63.072 132.781 62.956 132.325 62.724C131.869 62.492 131.493 62.168 131.197 61.752C130.909 61.328 130.729 60.848 130.657 60.312H129.373V63H128.221V56.64H129.373V59.244H130.669C130.749 58.716 130.933 58.252 131.221 57.852C131.517 57.444 131.889 57.132 132.337 56.916C132.793 56.692 133.297 56.58 133.849 56.58ZM133.849 62.064C134.241 62.064 134.593 61.972 134.905 61.788C135.225 61.604 135.477 61.344 135.661 61.008C135.845 60.664 135.937 60.268 135.937 59.82C135.937 59.38 135.845 58.992 135.661 58.656C135.477 58.312 135.225 58.048 134.905 57.864C134.593 57.68 134.241 57.588 133.849 57.588C133.457 57.588 133.101 57.68 132.781 57.864C132.461 58.048 132.209 58.312 132.025 58.656C131.849 58.992 131.761 59.38 131.761 59.82C131.761 60.268 131.849 60.664 132.025 61.008C132.209 61.344 132.461 61.604 132.781 61.788C133.101 61.972 133.457 62.064 133.849 62.064Z" fill="white"/>
</svg>
