<svg width="212" height="67" viewBox="0 0 212 67" fill="none" xmlns="http://www.w3.org/2000/svg">
<path d="M52.9991 13.4441H47.9991V15.2483L52.9991 20.0167V13.4441Z" fill="#FE980F"/>
<path d="M52.999 28.8058L42.9254 19.2163L42.9204 19.2331L35.5543 12.2211V12.2004L31.9994 8.81749V6.4823V8.81749L31.0082 9.76085V9.76343L23.6421 16.7742V16.7729L19.9396 20.2963L10.9998 28.8058V57.7766H52.999V28.8058Z" fill="#FE980F"/>
<path d="M24.062 24.9126H23.9745C21.5621 24.9384 19.4371 26.1627 17.6496 28.5211C15.9872 30.7248 15.4372 33.1347 16.0372 35.6607C17.8996 43.5477 30.8119 49.7595 31.3619 50.0301C31.5619 50.1332 31.7869 50.1719 31.9994 50.1719C32.2244 50.1719 32.4369 50.1203 32.6369 50.0301C33.1868 49.7723 46.0991 43.5477 47.9616 35.6607C48.5615 33.1347 48.0116 30.7377 46.3491 28.5211C44.5616 26.1627 42.4367 24.9384 40.0242 24.9126H39.9367C36.5618 24.9126 33.5743 27.3225 31.9994 28.8948C30.4244 27.3354 27.437 24.9126 24.062 24.9126Z" fill="white"/>
<path d="M62.9988 57.8141H54.9989V30.7506L59.3238 34.8616C59.5113 35.0421 59.7613 35.1323 59.9988 35.1323C60.2488 35.1323 60.5113 35.0292 60.7113 34.8359L63.7113 31.7429C63.8988 31.5496 64.0112 31.279 63.9987 30.9954C63.9987 30.7119 63.8737 30.4542 63.6738 30.2609L54.9989 21.9614V12.4505C54.9989 11.8835 54.5489 11.4195 53.9989 11.4195H46.9991C46.4491 11.4195 45.9991 11.8835 45.9991 12.4505V13.3784L36.6743 4.4861C36.643 4.45388 36.608 4.42424 36.573 4.39717V4.40104L31.9994 0.0502608V0L24.0058 7.60613L24.0133 7.63448L0.324994 30.248C0.124998 30.4413 0 30.7119 0 30.9825C0 31.2661 0.099998 31.5367 0.287494 31.73L3.28744 34.823C3.66243 35.2096 4.27492 35.2225 4.67491 34.8488L8.99982 30.7506V57.8141H0.99998C0.449991 57.8141 0 58.278 0 58.8451V62.969C0 63.5361 0.449991 64 0.99998 64H62.9988C63.5488 64 63.9987 63.5361 63.9987 62.969V58.8451C63.9987 58.278 63.5488 57.8141 62.9988 57.8141ZM47.9991 13.4815H52.999V20.054L47.9991 15.2857V13.4815ZM52.999 57.8141H10.9998V28.8432L19.9396 20.335L23.642 16.8116V16.8129L31.0094 9.80214V9.79956L32.0006 8.85621L35.5543 12.2391V12.2611L42.9217 19.2718L42.9267 19.2563L53.0002 28.8445V57.8141H52.999Z" fill="#FE980F"/>
<path d="M100.984 14.552C100.984 16.776 100.224 18.528 98.704 19.808C97.2 21.072 95.032 21.776 92.2 21.92V23.744H88.624V21.896C85.776 21.736 83.592 21.024 82.072 19.76C80.568 18.48 79.816 16.744 79.816 14.552C79.816 12.344 80.568 10.616 82.072 9.368C83.592 8.104 85.776 7.384 88.624 7.208V5.48H92.2V7.184C95.032 7.344 97.2 8.064 98.704 9.344C100.224 10.624 100.984 12.36 100.984 14.552ZM92.2 18.872C93.896 18.712 95.16 18.28 95.992 17.576C96.824 16.856 97.24 15.84 97.24 14.528C97.24 11.968 95.56 10.544 92.2 10.256V18.872ZM83.584 14.552C83.584 17.08 85.264 18.52 88.624 18.872V10.256C86.912 10.416 85.64 10.848 84.808 11.552C83.992 12.24 83.584 13.24 83.584 14.552ZM103.605 10.088H107.325V17.768L113.613 10.088H117.045V23H113.325V15.32L107.061 23H103.605V10.088ZM133.028 10.088V23H129.284V13.16H125.204L125.084 15.44C125.02 17.136 124.86 18.544 124.604 19.664C124.348 20.784 123.932 21.664 123.356 22.304C122.78 22.944 121.98 23.264 120.956 23.264C120.412 23.264 119.764 23.168 119.012 22.976L119.204 19.904C119.46 19.936 119.644 19.952 119.756 19.952C120.316 19.952 120.732 19.752 121.004 19.352C121.292 18.936 121.484 18.416 121.58 17.792C121.676 17.152 121.748 16.312 121.796 15.272L121.988 10.088H133.028ZM154.244 19.832V26.48H150.644V23H138.788V26.48H135.188L135.212 19.832H135.884C136.892 19.8 137.604 19.064 138.02 17.624C138.436 16.184 138.692 14.128 138.788 11.456L138.98 6.2H151.892V19.832H154.244ZM142.22 11.816C142.14 13.816 141.972 15.496 141.716 16.856C141.46 18.2 141.068 19.192 140.54 19.832H148.052V9.368H142.292L142.22 11.816ZM162.457 23.192C161.097 23.192 159.873 22.912 158.785 22.352C157.713 21.776 156.873 20.984 156.265 19.976C155.657 18.968 155.353 17.824 155.353 16.544C155.353 15.264 155.657 14.12 156.265 13.112C156.873 12.104 157.713 11.32 158.785 10.76C159.873 10.184 161.097 9.896 162.457 9.896C163.817 9.896 165.033 10.184 166.105 10.76C167.177 11.32 168.017 12.104 168.625 13.112C169.233 14.12 169.537 15.264 169.537 16.544C169.537 17.824 169.233 18.968 168.625 19.976C168.017 20.984 167.177 21.776 166.105 22.352C165.033 22.912 163.817 23.192 162.457 23.192ZM162.457 20.12C163.417 20.12 164.201 19.8 164.809 19.16C165.433 18.504 165.745 17.632 165.745 16.544C165.745 15.456 165.433 14.592 164.809 13.952C164.201 13.296 163.417 12.968 162.457 12.968C161.497 12.968 160.705 13.296 160.081 13.952C159.457 14.592 159.145 15.456 159.145 16.544C159.145 17.632 159.457 18.504 160.081 19.16C160.705 19.8 161.497 20.12 162.457 20.12ZM184.713 23V15.272L180.849 21.752H179.265L175.497 15.248V23H172.113V10.088H176.025L180.153 17.552L184.545 10.088H188.049L188.097 23H184.713Z" fill="black"/>
<path d="M85.216 41.89C85.832 42.058 86.3127 42.352 86.658 42.772C87.0033 43.1827 87.176 43.6773 87.176 44.256C87.176 44.8347 86.9893 45.3433 86.616 45.782C86.252 46.2113 85.762 46.5427 85.146 46.776C84.5393 47 83.8767 47.112 83.158 47.112C82.5047 47.112 81.856 47.014 81.212 46.818C80.568 46.622 79.98 46.328 79.448 45.936L79.938 44.9C80.3673 45.236 80.848 45.488 81.38 45.656C81.912 45.824 82.4487 45.908 82.99 45.908C83.774 45.908 84.432 45.7447 84.964 45.418C85.496 45.082 85.762 44.6247 85.762 44.046C85.762 43.5513 85.5613 43.1733 85.16 42.912C84.7587 42.6413 84.194 42.506 83.466 42.506H81.282V41.372H83.368C83.9933 41.372 84.4787 41.246 84.824 40.994C85.1787 40.7327 85.356 40.3733 85.356 39.916C85.356 39.4027 85.1273 38.9967 84.67 38.698C84.2127 38.3993 83.634 38.25 82.934 38.25C82.4767 38.25 82.01 38.3153 81.534 38.446C81.0673 38.5767 80.624 38.7727 80.204 39.034L79.756 37.886C80.2507 37.606 80.7733 37.396 81.324 37.256C81.8747 37.116 82.4253 37.046 82.976 37.046C83.6667 37.046 84.3013 37.1533 84.88 37.368C85.4587 37.5827 85.916 37.8953 86.252 38.306C86.5973 38.7167 86.77 39.1973 86.77 39.748C86.77 40.2427 86.63 40.6767 86.35 41.05C86.0793 41.4233 85.7013 41.7033 85.216 41.89ZM91.9304 39.51C92.9571 39.51 93.7411 39.762 94.2824 40.266C94.8331 40.77 95.1084 41.5213 95.1084 42.52V47H93.8344V46.02C93.6104 46.3653 93.2884 46.6313 92.8684 46.818C92.4578 46.9953 91.9678 47.084 91.3984 47.084C90.5678 47.084 89.9004 46.8833 89.3964 46.482C88.9018 46.0807 88.6544 45.5533 88.6544 44.9C88.6544 44.2467 88.8924 43.724 89.3684 43.332C89.8444 42.9307 90.6004 42.73 91.6364 42.73H93.7644V42.464C93.7644 41.8853 93.5964 41.442 93.2604 41.134C92.9244 40.826 92.4298 40.672 91.7764 40.672C91.3378 40.672 90.9084 40.7467 90.4884 40.896C90.0684 41.036 89.7138 41.2273 89.4244 41.47L88.8644 40.462C89.2471 40.154 89.7044 39.9207 90.2364 39.762C90.7684 39.594 91.3331 39.51 91.9304 39.51ZM91.6224 46.048C92.1358 46.048 92.5791 45.936 92.9524 45.712C93.3258 45.4787 93.5964 45.152 93.7644 44.732V43.696H91.6924C90.5538 43.696 89.9844 44.0787 89.9844 44.844C89.9844 45.2173 90.1291 45.5113 90.4184 45.726C90.7078 45.9407 91.1091 46.048 91.6224 46.048ZM104.403 39.58V47H103.059V40.756H98.8726V47H97.5286V39.58H104.403ZM110.181 47.084C109.444 47.084 108.781 46.9207 108.193 46.594C107.605 46.2673 107.143 45.8193 106.807 45.25C106.481 44.6713 106.317 44.018 106.317 43.29C106.317 42.562 106.481 41.9133 106.807 41.344C107.143 40.7653 107.605 40.3173 108.193 40C108.781 39.6733 109.444 39.51 110.181 39.51C110.919 39.51 111.577 39.6733 112.155 40C112.743 40.3173 113.201 40.7653 113.527 41.344C113.863 41.9133 114.031 42.562 114.031 43.29C114.031 44.018 113.863 44.6713 113.527 45.25C113.201 45.8193 112.743 46.2673 112.155 46.594C111.577 46.9207 110.919 47.084 110.181 47.084ZM110.181 45.908C110.657 45.908 111.082 45.8007 111.455 45.586C111.838 45.362 112.137 45.054 112.351 44.662C112.566 44.2607 112.673 43.8033 112.673 43.29C112.673 42.7767 112.566 42.324 112.351 41.932C112.137 41.5307 111.838 41.2227 111.455 41.008C111.082 40.7933 110.657 40.686 110.181 40.686C109.705 40.686 109.276 40.7933 108.893 41.008C108.52 41.2227 108.221 41.5307 107.997 41.932C107.783 42.324 107.675 42.7767 107.675 43.29C107.675 43.8033 107.783 44.2607 107.997 44.662C108.221 45.054 108.52 45.362 108.893 45.586C109.276 45.8007 109.705 45.908 110.181 45.908ZM122.287 39.58V47H120.943V40.756H117.751L117.667 42.408C117.621 43.4067 117.532 44.242 117.401 44.914C117.271 45.5767 117.056 46.1087 116.757 46.51C116.459 46.9113 116.043 47.112 115.511 47.112C115.269 47.112 114.993 47.07 114.685 46.986L114.769 45.852C114.891 45.88 115.003 45.894 115.105 45.894C115.479 45.894 115.759 45.7307 115.945 45.404C116.132 45.0773 116.253 44.69 116.309 44.242C116.365 43.794 116.417 43.1547 116.463 42.324L116.589 39.58H122.287ZM124.886 39.58H126.23V42.73H130.458V39.58H131.802V47H130.458V43.892H126.23V47H124.886V39.58ZM134.415 39.58H135.759V44.984L140.309 39.58H141.527V47H140.183V41.596L135.647 47H134.415V39.58ZM151.13 47.084C150.374 47.084 149.697 46.9207 149.1 46.594C148.512 46.2673 148.05 45.8193 147.714 45.25C147.378 44.6713 147.21 44.018 147.21 43.29C147.21 42.562 147.378 41.9133 147.714 41.344C148.05 40.7653 148.512 40.3173 149.1 40C149.697 39.6733 150.374 39.51 151.13 39.51C151.802 39.51 152.399 39.6453 152.922 39.916C153.454 40.1867 153.864 40.5787 154.154 41.092L153.132 41.75C152.898 41.3953 152.609 41.1293 152.264 40.952C151.918 40.7747 151.536 40.686 151.116 40.686C150.63 40.686 150.192 40.7933 149.8 41.008C149.417 41.2227 149.114 41.5307 148.89 41.932C148.675 42.324 148.568 42.7767 148.568 43.29C148.568 43.8127 148.675 44.2747 148.89 44.676C149.114 45.068 149.417 45.3713 149.8 45.586C150.192 45.8007 150.63 45.908 151.116 45.908C151.536 45.908 151.918 45.8193 152.264 45.642C152.609 45.4647 152.898 45.1987 153.132 44.844L154.154 45.488C153.864 46.0013 153.454 46.398 152.922 46.678C152.399 46.9487 151.802 47.084 151.13 47.084ZM160.948 43.15C161.909 43.3927 162.39 43.9947 162.39 44.956C162.39 45.6093 162.142 46.1133 161.648 46.468C161.162 46.8227 160.434 47 159.464 47H155.894V39.58H159.338C160.215 39.58 160.901 39.748 161.396 40.084C161.89 40.4107 162.138 40.8773 162.138 41.484C162.138 41.876 162.03 42.2167 161.816 42.506C161.61 42.786 161.321 43.0007 160.948 43.15ZM157.21 42.772H159.226C159.739 42.772 160.126 42.6787 160.388 42.492C160.658 42.3053 160.794 42.0347 160.794 41.68C160.794 40.9707 160.271 40.616 159.226 40.616H157.21V42.772ZM159.366 45.964C159.926 45.964 160.346 45.8753 160.626 45.698C160.906 45.5207 161.046 45.2453 161.046 44.872C161.046 44.4893 160.915 44.2047 160.654 44.018C160.402 43.8313 160 43.738 159.45 43.738H157.21V45.964H159.366ZM167.671 47.084C166.934 47.084 166.271 46.9207 165.683 46.594C165.095 46.2673 164.633 45.8193 164.297 45.25C163.971 44.6713 163.807 44.018 163.807 43.29C163.807 42.562 163.971 41.9133 164.297 41.344C164.633 40.7653 165.095 40.3173 165.683 40C166.271 39.6733 166.934 39.51 167.671 39.51C168.409 39.51 169.067 39.6733 169.645 40C170.233 40.3173 170.691 40.7653 171.017 41.344C171.353 41.9133 171.521 42.562 171.521 43.29C171.521 44.018 171.353 44.6713 171.017 45.25C170.691 45.8193 170.233 46.2673 169.645 46.594C169.067 46.9207 168.409 47.084 167.671 47.084ZM167.671 45.908C168.147 45.908 168.572 45.8007 168.945 45.586C169.328 45.362 169.627 45.054 169.841 44.662C170.056 44.2607 170.163 43.8033 170.163 43.29C170.163 42.7767 170.056 42.324 169.841 41.932C169.627 41.5307 169.328 41.2227 168.945 41.008C168.572 40.7933 168.147 40.686 167.671 40.686C167.195 40.686 166.766 40.7933 166.383 41.008C166.01 41.2227 165.711 41.5307 165.487 41.932C165.273 42.324 165.165 42.7767 165.165 43.29C165.165 43.8033 165.273 44.2607 165.487 44.662C165.711 45.054 166.01 45.362 166.383 45.586C166.766 45.8007 167.195 45.908 167.671 45.908ZM173.462 39.58H174.806V44.984L179.356 39.58H180.574V47H179.23V41.596L174.694 47H173.462V39.58ZM176.934 38.614C176.243 38.614 175.707 38.4507 175.324 38.124C174.941 37.788 174.745 37.3073 174.736 36.682H175.646C175.655 37.0273 175.772 37.3073 175.996 37.522C176.229 37.7273 176.537 37.83 176.92 37.83C177.303 37.83 177.611 37.7273 177.844 37.522C178.077 37.3073 178.199 37.0273 178.208 36.682H179.146C179.137 37.3073 178.936 37.788 178.544 38.124C178.152 38.4507 177.615 38.614 176.934 38.614ZM87.848 62.824V65.722H86.588V64H80.386V65.722H79.112V62.824H79.504C79.98 62.796 80.3067 62.46 80.484 61.816C80.6613 61.172 80.7827 60.262 80.848 59.086L80.96 56.58H86.714V62.824H87.848ZM82.08 59.184C82.0427 60.1173 81.9633 60.892 81.842 61.508C81.73 62.1147 81.52 62.5533 81.212 62.824H85.37V57.756H82.15L82.08 59.184ZM92.7769 64.084C92.0395 64.084 91.3769 63.9207 90.7889 63.594C90.2009 63.2673 89.7389 62.8193 89.4029 62.25C89.0762 61.6713 88.9129 61.018 88.9129 60.29C88.9129 59.562 89.0762 58.9133 89.4029 58.344C89.7389 57.7653 90.2009 57.3173 90.7889 57C91.3769 56.6733 92.0395 56.51 92.7769 56.51C93.5142 56.51 94.1722 56.6733 94.7509 57C95.3389 57.3173 95.7962 57.7653 96.1229 58.344C96.4589 58.9133 96.6269 59.562 96.6269 60.29C96.6269 61.018 96.4589 61.6713 96.1229 62.25C95.7962 62.8193 95.3389 63.2673 94.7509 63.594C94.1722 63.9207 93.5142 64.084 92.7769 64.084ZM92.7769 62.908C93.2529 62.908 93.6775 62.8007 94.0509 62.586C94.4335 62.362 94.7322 62.054 94.9469 61.662C95.1615 61.2607 95.2689 60.8033 95.2689 60.29C95.2689 59.7767 95.1615 59.324 94.9469 58.932C94.7322 58.5307 94.4335 58.2227 94.0509 58.008C93.6775 57.7933 93.2529 57.686 92.7769 57.686C92.3009 57.686 91.8715 57.7933 91.4889 58.008C91.1155 58.2227 90.8169 58.5307 90.5929 58.932C90.3782 59.324 90.2709 59.7767 90.2709 60.29C90.2709 60.8033 90.3782 61.2607 90.5929 61.662C90.8169 62.054 91.1155 62.362 91.4889 62.586C91.8715 62.8007 92.3009 62.908 92.7769 62.908ZM107.122 56.58V64H105.904V58.582L103.132 63.16H102.544L99.7996 58.568V64H98.5676V56.58H99.9536L102.866 61.592L105.862 56.58H107.122ZM119.867 56.58V64H118.523V57.756H115.331L115.247 59.408C115.201 60.4067 115.112 61.242 114.981 61.914C114.851 62.5767 114.636 63.1087 114.337 63.51C114.039 63.9113 113.623 64.112 113.091 64.112C112.849 64.112 112.573 64.07 112.265 63.986L112.349 62.852C112.471 62.88 112.583 62.894 112.685 62.894C113.059 62.894 113.339 62.7307 113.525 62.404C113.712 62.0773 113.833 61.69 113.889 61.242C113.945 60.794 113.997 60.1547 114.043 59.324L114.169 56.58H119.867ZM129.032 56.51C129.751 56.51 130.395 56.6733 130.964 57C131.533 57.3173 131.981 57.7653 132.308 58.344C132.635 58.9133 132.798 59.562 132.798 60.29C132.798 61.018 132.635 61.6713 132.308 62.25C131.981 62.8193 131.533 63.2673 130.964 63.594C130.395 63.9207 129.751 64.084 129.032 64.084C128.379 64.084 127.786 63.9487 127.254 63.678C126.722 63.4073 126.283 63.0293 125.938 62.544C125.602 62.0493 125.392 61.4893 125.308 60.864H123.81V64H122.466V56.58H123.81V59.618H125.322C125.415 59.002 125.63 58.4607 125.966 57.994C126.311 57.518 126.745 57.154 127.268 56.902C127.8 56.6407 128.388 56.51 129.032 56.51ZM129.032 62.908C129.489 62.908 129.9 62.8007 130.264 62.586C130.637 62.3713 130.931 62.068 131.146 61.676C131.361 61.2747 131.468 60.8127 131.468 60.29C131.468 59.7767 131.361 59.324 131.146 58.932C130.931 58.5307 130.637 58.2227 130.264 58.008C129.9 57.7933 129.489 57.686 129.032 57.686C128.575 57.686 128.159 57.7933 127.786 58.008C127.413 58.2227 127.119 58.5307 126.904 58.932C126.699 59.324 126.596 59.7767 126.596 60.29C126.596 60.8127 126.699 61.2747 126.904 61.676C127.119 62.068 127.413 62.3713 127.786 62.586C128.159 62.8007 128.575 62.908 129.032 62.908ZM138.51 56.832C139.2 56.832 139.816 56.986 140.358 57.294C140.899 57.602 141.319 58.0313 141.618 58.582C141.926 59.1233 142.08 59.744 142.08 60.444C142.08 61.1627 141.916 61.802 141.59 62.362C141.272 62.9127 140.82 63.342 140.232 63.65C139.653 63.958 138.99 64.112 138.244 64.112C136.984 64.112 136.008 63.6827 135.318 62.824C134.636 61.956 134.296 60.738 134.296 59.17C134.296 57.6487 134.608 56.4587 135.234 55.6C135.859 54.732 136.816 54.158 138.104 53.878L141.492 53.122L141.688 54.354L138.566 55.026C137.595 55.2407 136.872 55.6047 136.396 56.118C135.92 56.6313 135.649 57.3687 135.584 58.33C135.901 57.854 136.312 57.4853 136.816 57.224C137.32 56.9627 137.884 56.832 138.51 56.832ZM138.272 62.992C138.748 62.992 139.168 62.8847 139.532 62.67C139.905 62.4553 140.194 62.1613 140.4 61.788C140.605 61.4053 140.708 60.9713 140.708 60.486C140.708 59.7487 140.484 59.156 140.036 58.708C139.588 58.26 139 58.036 138.272 58.036C137.544 58.036 136.951 58.26 136.494 58.708C136.046 59.156 135.822 59.7487 135.822 60.486C135.822 60.9713 135.924 61.4053 136.13 61.788C136.344 62.1613 136.638 62.4553 137.012 62.67C137.385 62.8847 137.805 62.992 138.272 62.992ZM147.177 64.084C146.44 64.084 145.777 63.9207 145.189 63.594C144.601 63.2673 144.139 62.8193 143.803 62.25C143.477 61.6713 143.313 61.018 143.313 60.29C143.313 59.562 143.477 58.9133 143.803 58.344C144.139 57.7653 144.601 57.3173 145.189 57C145.777 56.6733 146.44 56.51 147.177 56.51C147.915 56.51 148.573 56.6733 149.151 57C149.739 57.3173 150.197 57.7653 150.523 58.344C150.859 58.9133 151.027 59.562 151.027 60.29C151.027 61.018 150.859 61.6713 150.523 62.25C150.197 62.8193 149.739 63.2673 149.151 63.594C148.573 63.9207 147.915 64.084 147.177 64.084ZM147.177 62.908C147.653 62.908 148.078 62.8007 148.451 62.586C148.834 62.362 149.133 62.054 149.347 61.662C149.562 61.2607 149.669 60.8033 149.669 60.29C149.669 59.7767 149.562 59.324 149.347 58.932C149.133 58.5307 148.834 58.2227 148.451 58.008C148.078 57.7933 147.653 57.686 147.177 57.686C146.701 57.686 146.272 57.7933 145.889 58.008C145.516 58.2227 145.217 58.5307 144.993 58.932C144.779 59.324 144.671 59.7767 144.671 60.29C144.671 60.8033 144.779 61.2607 144.993 61.662C145.217 62.054 145.516 62.362 145.889 62.586C146.272 62.8007 146.701 62.908 147.177 62.908ZM158.022 60.15C158.983 60.3927 159.464 60.9947 159.464 61.956C159.464 62.6093 159.217 63.1133 158.722 63.468C158.237 63.8227 157.509 64 156.538 64H152.968V56.58H156.412C157.289 56.58 157.975 56.748 158.47 57.084C158.965 57.4107 159.212 57.8773 159.212 58.484C159.212 58.876 159.105 59.2167 158.89 59.506C158.685 59.786 158.395 60.0007 158.022 60.15ZM154.284 59.772H156.3C156.813 59.772 157.201 59.6787 157.462 59.492C157.733 59.3053 157.868 59.0347 157.868 58.68C157.868 57.9707 157.345 57.616 156.3 57.616H154.284V59.772ZM156.44 62.964C157 62.964 157.42 62.8753 157.7 62.698C157.98 62.5207 158.12 62.2453 158.12 61.872C158.12 61.4893 157.989 61.2047 157.728 61.018C157.476 60.8313 157.075 60.738 156.524 60.738H154.284V62.964H156.44ZM164.998 59.1C165.94 59.1093 166.659 59.324 167.154 59.744C167.648 60.164 167.896 60.7567 167.896 61.522C167.896 62.3247 167.625 62.9453 167.084 63.384C166.552 63.8133 165.786 64.0233 164.788 64.014L161.568 64V56.58H162.912V59.086L164.998 59.1ZM164.676 62.992C165.282 63.0013 165.74 62.88 166.048 62.628C166.365 62.376 166.524 62.0027 166.524 61.508C166.524 61.0227 166.37 60.668 166.062 60.444C165.763 60.22 165.301 60.1033 164.676 60.094L162.912 60.066V62.978L164.676 62.992ZM176.186 56.51C176.905 56.51 177.549 56.6733 178.118 57C178.688 57.3173 179.136 57.7653 179.462 58.344C179.789 58.9133 179.952 59.562 179.952 60.29C179.952 61.018 179.789 61.6713 179.462 62.25C179.136 62.8193 178.688 63.2673 178.118 63.594C177.549 63.9207 176.905 64.084 176.186 64.084C175.533 64.084 174.94 63.9487 174.408 63.678C173.876 63.4073 173.438 63.0293 173.092 62.544C172.756 62.0493 172.546 61.4893 172.462 60.864H170.964V64H169.62V56.58H170.964V59.618H172.476C172.57 59.002 172.784 58.4607 173.12 57.994C173.466 57.518 173.9 57.154 174.422 56.902C174.954 56.6407 175.542 56.51 176.186 56.51ZM176.186 62.908C176.644 62.908 177.054 62.8007 177.418 62.586C177.792 62.3713 178.086 62.068 178.3 61.676C178.515 61.2747 178.622 60.8127 178.622 60.29C178.622 59.7767 178.515 59.324 178.3 58.932C178.086 58.5307 177.792 58.2227 177.418 58.008C177.054 57.7933 176.644 57.686 176.186 57.686C175.729 57.686 175.314 57.7933 174.94 58.008C174.567 58.2227 174.273 58.5307 174.058 58.932C173.853 59.324 173.75 59.7767 173.75 60.29C173.75 60.8127 173.853 61.2747 174.058 61.676C174.273 62.068 174.567 62.3713 174.94 62.586C175.314 62.8007 175.729 62.908 176.186 62.908Z" fill="#4B4B4B"/>
</svg>
